HIERARCHY
ROOT ui
{
	 OFFSET 0 0 0
	 CHANNELS 3 XPosition YPosition Z Position
	 EndSite
	 {
	 OFFSET 0 -1 0
	 }
}
ROOT li
{
	 OFFSET 0 0 0
	 CHANNELS 3 XPosition YPosition Z Position
	 EndSite
	 {
	 OFFSET 0 -1 0
	 }
}
ROOT ul
{
	 OFFSET 0 0 0
	 CHANNELS 3 XPosition YPosition Z Position
	 EndSite
	 {
	 OFFSET 0 -1 0
	 }
}
ROOT ll
{
	 OFFSET 0 0 0
	 CHANNELS 3 XPosition YPosition Z Position
	 EndSite
	 {
	 OFFSET 0 -1 0
	 }
}
ROOT tt
{
	 OFFSET 0 0 0
	 CHANNELS 3 XPosition YPosition Z Position
	 EndSite
	 {
	 OFFSET 0 -1 0
	 }
}
ROOT tb
{
	 OFFSET 0 0 0
	 CHANNELS 3 XPosition YPosition Z Position
	 EndSite
	 {
	 OFFSET 0 -1 0
	 }
}
ROOT td
{
	 OFFSET 0 0 0
	 CHANNELS 3 XPosition YPosition Z Position
	 EndSite
	 {
	 OFFSET 0 -1 0
	 }
}
ROOT v
{
	 OFFSET 0 0 0
	 CHANNELS 3 XPosition YPosition Z Position
	 EndSite
	 {
	 OFFSET 0 -1 0
	 }
}
ROOT bn
{
	 OFFSET 0 0 0
	 CHANNELS 3 XPosition YPosition Z Position
	 EndSite
	 {
	 OFFSET 0 -1 0
	 }
}
MOTION
Frames: 29
Frame Time: 0.002
-0.008542149543762208	-9.848889708518982E-4	0		0.63494140625	-2.403407470703125	0		-1.053080078125	-0.05074924468994141	0		-0.6837305908203125	-2.36348046875	0		2.8394189453125	-0.018900028228759767	0		4.11173046875	-0.09537425994873047	0		5.27381201171875	0.009240633010864257	0		5.9590673828125	0.4066309814453125	0		-0.252806640625	5.8906923828125	0		
-0.008640035629272461	-7.363399863243103E-4	0		0.606958740234375	-2.402855224609375	0		-1.1261331787109374	-0.04583835983276367	0		-0.693637939453125	-2.355166748046875	0		2.8523603515625	-0.01464345359802246	0		4.095579345703125	-0.10077401733398438	0		5.26880126953125	0.018787956237792967	0		5.96261279296875	0.4195767517089844	0		-0.26829043579101564	5.880076171875	0		
-0.008746896743774414	-4.998030066490173E-4	0		0.6069627075195313	-2.40259033203125	0		-1.1202867431640624	-0.05071139144897461	0		-0.695655517578125	-2.3569423828125	0		2.865418701171875	0.002598078966140747	0		4.087535888671875	-0.09427074432373046	0		5.276673828125	0.017190414428710936	0		5.97106103515625	0.41161279296875	0		-0.26669781494140626	5.87728125	0		
-0.0039000630378723143	-0.004326089859008789	0		0.5939454345703125	-2.403215576171875	0		-1.1893955078125	-0.0498718032836914	0		-0.6796858520507812	-2.3589052734375	0		2.87341015625	0.013868958473205566	0		4.13025927734375	-0.11128285217285157	0		5.2855390625	0.015558661460876465	0		5.97822216796875	0.4399662780761719	0		-0.2509853057861328	5.8863369140625	0		
0.026008785247802733	-0.0014098199605941772	0		0.6410010986328125	-2.395438232421875	0		-1.1014586181640624	-0.04456295013427734	0		-0.674658935546875	-2.353776611328125	0		2.885444091796875	0.03007719612121582	0		4.12835693359375	-0.08888803100585937	0		5.28949658203125	0.023944316864013673	0		5.9859697265625	0.4371091003417969	0		-0.2664534606933594	5.87567626953125	0		
-0.009100830078125	1.1307600140571594E-4	0		0.6109540405273437	-2.396939697265625	0		-1.11064453125	-0.051331977844238284	0		-0.6876317138671875	-2.34749169921875	0		2.904302001953125	0.028192007064819335	0		4.109048828125	-0.10836067962646484	0		5.291240234375	0.010314518928527833	0		5.9787509765625	0.4379952087402344	0		-0.26778933715820313	5.8768623046875	0		
-0.004261144161224365	-0.0037683219909667967	0		0.6348658447265625	-2.401981201171875	0		-1.1107646484375	-0.051203731536865235	0		-0.6767496337890625	-2.35545361328125	0		2.882218505859375	0.032668380737304686	0		4.133919921875	-0.10929144287109376	0		5.29605126953125	0.0036157219409942627	0		5.9859189453125	0.46961404418945313	0		-0.26712310791015625	5.87601025390625	0		
-0.009344898223876952	4.245150089263916E-4	0		0.61086474609375	-2.396588134765625	0		-1.1498834228515624	-0.050720394134521486	0		-0.6747818603515625	-2.353347412109375	0		2.9402353515625	0.04734797668457031	0		4.12887744140625	-0.10097407531738281	0		5.29099560546875	0.010968160629272462	0		5.98723046875	0.4632266845703125	0		-0.26544149780273435	5.87412841796875	0		
-0.009465344429016113	5.483199954032898E-4	0		0.638803955078125	-2.39671435546875	0		-1.18092529296875	-0.042331634521484376	0		-0.7467727661132812	-2.345557373046875	0		2.91728564453125	0.06576434326171875	0		4.13988232421875	-0.08785005187988282	0		5.30785498046875	0.00906544303894043	0		6.00280810546875	0.45642483520507815	0		-0.2657113342285156	5.87424609375	0		
-0.0015899519920349122	-4.254899919033051E-4	0		0.6147769775390625	-2.3923720703125	0		-1.1370126953125	-0.03967051696777344	0		-0.6749093627929688	-2.353152099609375	0		2.921216796875	0.07088770294189453	0		4.14255126953125	-0.11069108581542969	0		5.307740234375	0.009275561332702636	0		5.9957158203125	0.488116455078125	0		-0.2659455871582031	5.8743427734375	0		
0.016314937591552735	4.839870035648346E-4	0		0.6366416625976562	-2.399490966796875	0		-1.1292392578125	-0.05268276596069336	0		-0.676996826171875	-2.3550634765625	0		2.92516845703125	0.07697299194335938	0		4.17451416015625	-0.10385247039794922	0		5.31356982421875	0.0023781230449676513	0		6.00990576171875	0.4880827941894531	0		-0.2802499084472656	5.86255126953125	0		
-0.009771346092224121	7.868580222129822E-4	0		0.6365763549804687	-2.399427978515625	0		-1.129326171875	-0.05263615036010742	0		-0.682109619140625	-2.359965087890625	0		2.9651259765625	0.08167879486083984	0		4.1374384765625	-0.1024073486328125	0		5.31840673828125	-0.005562735080718994	0		6.00411083984375	0.481489013671875	0		-0.2813819274902344	5.863615234375	0		
0.021122711181640625	-0.0034720489978790283	0		0.6085189208984375	-2.399127685546875	0		-1.1693909912109375	-0.05222830200195312	0		-0.7191384887695312	-2.356584228515625	0		2.969115234375	0.08768446350097656	0		4.16137109375	-0.1025864028930664	0		5.33225439453125	-0.014642965316772462	0		6.00546240234375	0.4746300964355469	0		-0.26438409423828124	5.8724873046875	0		
-0.005843585014343262	0.004792764186859131	0		0.6145354614257813	-2.392176025390625	0		-1.1603590087890625	-0.04430056381225586	0		-0.6672466430664062	-2.3630634765625	0		2.969072509765625	0.08768688201904297	0		4.1722236328125	-0.11369052124023438	0		5.32627734375	-0.007590288162231445	0		6.0097578125	0.48663189697265624	0		-0.26244985961914064	5.86847900390625	0		
0.02508975601196289	-5.141680240631104E-4	0		0.6165252075195312	-2.38921435546875	0		-1.1353690185546874	-0.04354112243652344	0		-0.66526611328125	-2.3610908203125	0		2.96817822265625	0.10065628051757812	0		4.181412109375	-0.091826416015625	0		5.34525830078125	-0.007829666137695312	0		6.0128076171875	0.5400801391601563	0		-0.2624081115722656	5.86946728515625	0		
-0.001902804970741272	-2.976059913635254E-4	0		0.6384292602539062	-2.396470458984375	0		-1.135363525390625	-0.04356334686279297	0		-0.6743792724609375	-2.3700341796875	0		2.95919580078125	0.10165928649902344	0		4.14717236328125	-0.11760312652587891	0		5.34119873046875	-0.01490840244293213	0		6.01701123046875	0.5190026245117187	0		-0.26330657958984377	5.87044189453125	0		
-0.00986531162261963	7.138710021972656E-4	0		0.6014848022460938	-2.388197265625	0		-1.11747998046875	-0.058774444580078126	0		-0.676419677734375	-2.372065673828125	0		2.994223876953125	0.10120117950439453	0		4.17031982421875	-0.10497255706787109	0		5.3371689453125	-0.021045440673828124	0		6.02122900390625	0.4978161315917969	0		-0.2621666564941406	5.86937353515625	0		
-0.00485799503326416	-0.003424241065979004	0		0.636359619140625	-2.399636962890625	0		-1.1124075927734376	-0.055882976531982424	0		-0.6705621337890625	-2.38519482421875	0		2.983406005859375	0.11513348388671875	0		4.17934326171875	-0.10726166534423828	0		5.34619482421875	-0.023366044998168946	0		6.01426611328125	0.5321388549804688	0		-0.27705715942382814	5.8594326171875	0		
-0.004796971797943115	-0.003542171001434326	0		0.5854195556640625	-2.39128955078125	0		-1.17730712890625	-0.051343250274658206	0		-0.6725994262695313	-2.387271484375	0		2.987528076171875	0.1208775405883789	0		4.19354345703125	-0.09265338134765624	0		5.3462548828125	-0.02366219711303711	0		6.02283544921875	0.5227379150390625	0		-0.29577133178710935	5.86250537109375	0		
-0.0056445832252502446	0.004321829795837402	0		0.640369384765625	-2.394985595703125	0		-1.089179931640625	-0.04628651428222656	0		-0.6746372680664062	-2.389370849609375	0		2.993541259765625	0.1135566864013672	0		4.18439501953125	-0.11587732696533203	0		5.35038720703125	-0.01805778694152832	0		6.01939306640625	0.5394534912109376	0		-0.26041729736328123	5.86703564453125	0		
-0.0046307859420776365	-0.0038597819805145264	0		0.6123522338867188	-2.39491748046875	0		-1.077188232421875	-0.056524631500244144	0		-0.674838623046875	-2.40851171875	0		2.983647216796875	0.11434388732910156	0		4.19862451171875	-0.10137641143798828	0		5.34235205078125	-0.03139671134948731	0		6.02309423828125	0.555892578125	0		-0.2600589294433594	5.866875	0		
-0.004523548126220703	-0.004059028148651123	0		0.634267822265625	-2.402361328125	0		-1.068006591796875	-0.048756385803222654	0		-0.6958829345703125	-2.41147314453125	0		2.987818603515625	0.11995215606689454	0		4.17965966796875	-0.1086070556640625	0		5.35145751953125	-0.03195772361755371	0		6.0273701171875	0.534149169921875	0		-0.2606405029296875	5.8676982421875	0		
-0.009357464790344239	-2.3588299751281738E-4	0		0.6103084106445312	-2.39738916015625	0		-1.1258990478515625	-0.05035603332519531	0		-0.6601088256835937	-2.434009033203125	0		2.994757080078125	0.09948963165283203	0		4.19884814453125	-0.1022554702758789	0		5.3524169921875	-0.04949607467651367	0		6.0396357421875	0.5449854736328125	0		-0.258199951171875	5.86546826171875	0		
0.0217525577545166	-0.004789629936218262	0		0.647220947265625	-2.407039794921875	0		-1.15263232421875	-0.038272666931152347	0		-0.695244140625	-2.447874755859375	0		3.01301123046875	0.10887704467773437	0		4.21476611328125	-0.1259212646484375	0		5.35256494140625	-0.050077346801757815	0		6.03275341796875	0.5786693115234375	0		-0.30971359252929687	5.86274365234375	0		
0.0060299930572509765	0.005093069076538086	0		0.6143695068359375	-2.394031005859375	0		-1.1343094482421876	-0.023648059844970704	0		-0.6323893432617187	-2.464723388671875	0		3.0091376953125	0.10244364929199219	0		4.2072822265625	-0.09139686584472656	0		5.36580810546875	-0.04383440399169922	0		6.040716796875	0.5738512573242187	0		-0.25612936401367187	5.86396728515625	0		
0.017177595138549804	-0.0013105649948120118	0		0.6363385620117188	-2.40158642578125	0		-1.1841806640625	-0.031365076065063474	0		-0.653572265625	-2.48676318359375	0		3.004302734375	0.09698866271972656	0		4.1852158203125	-0.11876566314697265	0		5.366873046875	-0.05851374053955078	0		6.03723095703125	0.5553912353515625	0		-0.2565010681152344	5.864701171875	0		
-0.00454567003250122	0.0025955030918121337	0		0.6063806762695313	-2.40364501953125	0		-1.13386962890625	-0.024092926025390624	0		-0.6676674194335938	-2.501887451171875	0		2.999615966796875	0.10350662231445312	0		4.1925224609375	-0.11145401000976562	0		5.358115234375	-0.05812755966186523	0		6.0410400390625	0.5712955322265625	0		-0.2568280029296875	5.8654169921875	0		
-0.008324725151062012	-0.0016934429407119752	0		0.606462158203125	-2.404020263671875	0		-1.169568359375	-0.019975048065185547	0		-0.681743896484375	-2.517025390625	0		2.9698154296875	0.09625601196289063	0		4.2156123046875	-0.12832806396484375	0		5.36430078125	-0.0659175033569336	0		6.0497744140625	0.566269287109375	0		-0.2400292205810547	5.8749443359375	0		
-0.004001321792602539	0.0019210460186004639	0		0.5816162719726562	-2.3991572265625	0		-1.1442779541015624	-0.01948643493652344	0		-0.690741455078125	-2.526227294921875	0		2.980094970703125	0.09458539581298828	0		4.20012060546875	-0.10582942199707031	0		5.36762939453125	-0.06169765090942383	0		6.03864111328125	0.582457275390625	0		-0.23930355834960937	5.8746171875	0		
